<svg xmlns="http://www.w3.org/2000/svg" viewBox="362 238 680 282" width="680" height="282">
<path d="M 551.00 504.34 C538.61,509.43 524.80,504.62 518.79,493.12 C513.92,483.79 515.51,469.37 522.06,463.44 C523.13,462.48 524.00,461.00 524.00,460.16 C524.00,459.33 520.96,450.18 517.25,439.83 L 510.50 421.03 L 503.00 420.98 C498.04,420.95 493.64,420.25 490.00,418.90 C489.38,418.68 488.81,418.46 488.27,418.26 C485.09,417.06 483.22,416.36 481.54,416.67 C478.86,417.16 476.66,420.25 470.37,428.05 C464.94,434.79 459.49,441.54 458.25,443.05 L 456.01 445.80 L 457.98 450.15 C463.21,461.67 458.16,476.71 446.95,483.00 C443.30,485.05 441.15,485.50 435.00,485.50 C428.62,485.50 426.80,485.09 422.83,482.76 C404.25,471.83 404.59,446.71 423.44,437.48 C428.03,435.24 429.92,434.90 436.65,435.10 L 444.50 435.33 L 456.72 420.44 C468.25,406.41 468.86,405.44 467.44,403.53 C464.96,400.18 461.06,391.72 460.40,388.25 L 459.78 385.00 L 421.50 385.00 L 419.09 389.54 C416.26,394.87 410.89,399.42 404.96,401.51 C393.61,405.52 381.26,400.61 374.93,389.57 C372.47,385.29 372.02,383.41 372.03,377.50 C372.05,369.18 374.05,364.17 379.50,358.78 C384.79,353.57 390.30,351.68 398.82,352.16 C407.98,352.68 414.24,356.37 418.50,363.76 L 421.50 368.97 L 440.41 368.73 L 459.31 368.50 L 461.07 363.32 C462.04,360.48 463.99,356.43 465.41,354.34 C466.84,352.25 468.00,349.85 467.99,349.02 C467.99,347.58 447.97,321.86 444.84,319.28 C443.73,318.36 442.41,318.33 439.50,319.13 C434.80,320.42 429.16,319.63 423.87,316.93 C406.88,308.27 404.06,286.67 418.31,274.47 C431.99,262.76 453.00,268.43 458.62,285.36 C460.54,291.13 460.08,300.02 457.61,304.79 L 456.00 307.89 L 462.75 316.24 C466.46,320.83 472.14,327.78 475.36,331.69 L 481.22 338.79 L 485.86 336.71 C489.08,335.27 493.53,334.46 500.41,334.07 L 510.32 333.50 L 512.07 328.50 C513.04,325.75 515.94,317.65 518.51,310.50 L 518.73 309.89 C523.25,297.36 524.35,294.32 523.37,292.26 C523.05,291.56 522.49,290.98 521.74,290.19 C517.11,285.23 515.60,281.04 515.56,272.99 C515.53,266.59 515.93,264.80 518.24,260.85 C523.51,251.87 530.20,248.00 540.50,248.00 C551.01,248.00 558.45,252.40 563.31,261.50 C566.17,266.84 566.33,278.85 563.62,284.00 C559.41,291.99 551.64,297.64 543.19,298.86 L 538.73 299.50 L 531.69 319.39 L 524.65 339.27 L 527.58 341.35 C532.71,345.00 537.98,351.33 540.62,357.00 C542.02,360.02 543.52,363.17 543.94,364.00 C544.61,365.29 550.12,365.54 582.61,365.76 C603.44,365.91 621.17,365.76 622.00,365.43 C623.10,364.99 621.74,363.19 616.89,358.67 C613.26,355.28 605.18,347.19 598.94,340.71 L 587.60 328.92 L 595.30 321.21 L 603.01 313.51 L 634.44 345.01 L 665.87 376.50 L 634.43 408.47 L 602.99 440.44 L 595.49 432.99 C591.37,428.90 588.00,425.31 588.00,425.03 C588.01,424.17 593.47,418.35 608.89,402.75 L 623.47 388.00 L 544.45 388.00 L 541.53 394.75 C539.39,399.72 536.81,403.32 531.78,408.38 L 524.94 415.27 L 526.89 420.88 C529.72,429.01 537.69,451.21 538.47,453.15 C538.88,454.16 540.86,455.05 543.61,455.46 C557.52,457.55 566.02,467.35 565.99,481.29 C565.97,490.67 559.31,500.92 551.00,504.34 ZM 496.99 399.07 C503.65,401.09 510.16,399.38 516.30,393.97 C522.22,388.75 524.46,383.06 523.74,375.06 C523.07,367.72 520.18,362.43 514.69,358.50 C510.86,355.76 509.80,355.50 502.43,355.50 C495.29,355.50 493.87,355.82 490.19,358.26 C484.36,362.11 480.75,367.93 480.22,374.32 C479.23,386.35 485.47,395.56 496.99,399.07 Z" fill="#0e9254"/>
<path d="M 730.05 452.00 L 729.50 481.50 L 721.45 481.79 C717.03,481.95 713.09,481.76 712.70,481.37 C712.32,480.98 712.00,462.03 712.00,439.25 L 712.00 397.83 L 733.75 398.22 C757.21,398.64 759.36,399.07 765.92,404.59 C771.70,409.45 773.49,414.28 773.50,425.00 C773.50,436.06 772.29,439.11 765.28,445.70 L 760.82 449.91 L 768.90 465.30 C773.34,473.77 776.68,480.99 776.32,481.35 C775.96,481.71 771.57,482.00 766.56,482.00 L 757.45 482.00 L 742.55 452.00 Z M 992.00 461.45 L 991.50 481.50 L 975.00 482.08 L 975.00 398.00 L 992.00 398.00 L 992.01 413.25 L 992.02 428.50 L 994.49 425.37 C1001.23,416.82 1020.07,416.91 1026.85,425.53 C1031.22,431.10 1032.06,436.97 1031.77,460.08 L 1031.50 481.50 L 1014.50 481.50 L 1014.00 460.50 C1013.66,446.22 1013.09,438.79 1012.23,437.29 C1010.29,433.88 1004.26,432.45 999.78,434.32 C993.08,437.12 992.56,438.94 992.00,461.45 Z M 874.50 481.12 C868.53,483.86 861.43,483.55 854.98,480.25 C848.28,476.83 845.86,473.56 845.24,467.13 C843.88,452.98 850.03,447.26 869.52,444.52 C875.36,443.70 880.56,442.77 881.07,442.46 C882.71,441.44 882.09,435.39 880.17,433.65 C877.26,431.02 868.50,431.41 865.60,434.31 C864.33,435.58 863.10,437.21 862.85,437.94 C862.19,439.93 847.00,438.42 847.00,436.37 C847.00,433.78 850.84,427.32 853.92,424.72 C859.41,420.10 864.84,418.72 875.83,419.16 C884.71,419.52 886.27,419.87 890.63,422.54 C893.98,424.59 896.21,426.92 897.77,430.01 C899.96,434.34 900.03,435.28 899.77,458.00 L 899.50 481.50 L 883.50 481.50 L 883.00 478.14 L 882.50 474.77 L 880.50 477.03 C879.40,478.27 876.70,480.11 874.50,481.12 Z M 821.88 481.35 C808.39,485.71 792.54,480.84 785.50,470.17 C781.84,464.62 779.65,454.75 780.32,446.78 C781.37,434.20 787.78,424.73 797.83,420.95 C805.25,418.15 818.37,418.53 824.50,421.73 C833.51,426.43 838.22,434.99 838.39,446.96 L 838.50 454.50 L 797.22 455.04 L 797.95 458.29 C799.16,463.65 800.74,465.69 805.42,467.96 C811.07,470.70 816.22,469.93 820.43,465.72 C823.27,462.89 823.69,462.78 830.23,463.25 C833.99,463.52 837.35,464.02 837.69,464.36 C838.91,465.58 834.55,473.23 830.81,476.43 C828.71,478.23 824.69,480.44 821.88,481.35 Z M 948.57 481.53 C941.98,483.49 934.66,483.34 928.15,481.09 C921.60,478.82 918.47,476.57 914.28,471.12 C909.91,465.42 908.50,460.16 908.50,449.50 C908.50,441.66 908.86,439.76 911.31,434.78 C916.96,423.27 926.11,418.47 941.03,419.19 C948.63,419.55 950.49,420.01 954.64,422.58 C960.45,426.17 965.22,433.35 965.38,438.73 L 965.50 442.50 L 957.74 442.79 C950.06,443.08 949.97,443.06 948.92,440.29 C946.95,435.09 944.10,433.00 938.96,433.00 C933.43,433.00 929.48,435.61 927.38,440.64 C925.74,444.55 925.56,455.70 927.06,459.68 C931.01,470.14 943.40,472.01 948.07,462.86 L 950.04 459.00 L 958.02 459.00 C965.63,459.00 966.00,459.10 965.99,461.25 C965.97,465.22 961.38,473.54 957.38,476.85 C955.25,478.61 951.28,480.72 948.57,481.53 Z M 730.00 412.81 L 730.00 437.00 L 738.55 437.00 C748.41,437.00 752.14,435.56 754.59,430.82 C756.91,426.33 755.99,419.53 752.59,416.13 C750.16,413.70 749.20,413.47 739.98,413.16 Z M 863.45 467.55 C865.34,469.43 866.96,470.00 870.44,470.00 C877.00,470.00 881.08,466.17 881.98,459.16 C882.34,456.32 882.61,454.00 882.57,454.00 C882.53,454.00 878.71,454.67 874.08,455.48 C861.83,457.64 857.95,462.04 863.45,467.55 Z M 798.00 441.72 C798.00,443.96 798.20,444.00 809.53,444.00 C822.35,444.00 823.33,443.48 820.58,438.15 C818.42,433.98 815.25,432.00 810.73,432.00 C804.00,432.00 798.00,436.58 798.00,441.72 Z" fill="#010101"/>
</svg>