<svg xmlns="http://www.w3.org/2000/svg" viewBox="329 189 380 380" width="256" height="256">
<rect x="329" y="189" width="380" height="380" rx="60" fill="#0e9254"/>
<path d="M 551.00 504.34 C538.61,509.43 524.80,504.62 518.79,493.12 C513.92,483.79 515.51,469.37 522.06,463.44 C523.13,462.48 524.00,461.00 524.00,460.16 C524.00,459.33 520.96,450.18 517.25,439.83 L 510.50 421.03 L 503.00 420.98 C498.04,420.95 493.64,420.25 490.00,418.90 C489.38,418.68 488.81,418.46 488.27,418.26 C485.09,417.06 483.22,416.36 481.54,416.67 C478.86,417.16 476.66,420.25 470.37,428.05 C464.94,434.79 459.49,441.54 458.25,443.05 L 456.01 445.80 L 457.98 450.15 C463.21,461.67 458.16,476.71 446.95,483.00 C443.30,485.05 441.15,485.50 435.00,485.50 C428.62,485.50 426.80,485.09 422.83,482.76 C404.25,471.83 404.59,446.71 423.44,437.48 C428.03,435.24 429.92,434.90 436.65,435.10 L 444.50 435.33 L 456.72 420.44 C468.25,406.41 468.86,405.44 467.44,403.53 C464.96,400.18 461.06,391.72 460.40,388.25 L 459.78 385.00 L 421.50 385.00 L 419.09 389.54 C416.26,394.87 410.89,399.42 404.96,401.51 C393.61,405.52 381.26,400.61 374.93,389.57 C372.47,385.29 372.02,383.41 372.03,377.50 C372.05,369.18 374.05,364.17 379.50,358.78 C384.79,353.57 390.30,351.68 398.82,352.16 C407.98,352.68 414.24,356.37 418.50,363.76 L 421.50 368.97 L 440.41 368.73 L 459.31 368.50 L 461.07 363.32 C462.04,360.48 463.99,356.43 465.41,354.34 C466.84,352.25 468.00,349.85 467.99,349.02 C467.99,347.58 447.97,321.86 444.84,319.28 C443.73,318.36 442.41,318.33 439.50,319.13 C434.80,320.42 429.16,319.63 423.87,316.93 C406.88,308.27 404.06,286.67 418.31,274.47 C431.99,262.76 453.00,268.43 458.62,285.36 C460.54,291.13 460.08,300.02 457.61,304.79 L 456.00 307.89 L 462.75 316.24 C466.46,320.83 472.14,327.78 475.36,331.69 L 481.22 338.79 L 485.86 336.71 C489.08,335.27 493.53,334.46 500.41,334.07 L 510.32 333.50 L 512.07 328.50 C513.04,325.75 515.94,317.65 518.51,310.50 L 518.73 309.89 C523.25,297.36 524.35,294.32 523.37,292.26 C523.05,291.56 522.49,290.98 521.74,290.19 C517.11,285.23 515.60,281.04 515.56,272.99 C515.53,266.59 515.93,264.80 518.24,260.85 C523.51,251.87 530.20,248.00 540.50,248.00 C551.01,248.00 558.45,252.40 563.31,261.50 C566.17,266.84 566.33,278.85 563.62,284.00 C559.41,291.99 551.64,297.64 543.19,298.86 L 538.73 299.50 L 531.69 319.39 L 524.65 339.27 L 527.58 341.35 C532.71,345.00 537.98,351.33 540.62,357.00 C542.02,360.02 543.52,363.17 543.94,364.00 C544.61,365.29 550.12,365.54 582.61,365.76 C603.44,365.91 621.17,365.76 622.00,365.43 C623.10,364.99 621.74,363.19 616.89,358.67 C613.26,355.28 605.18,347.19 598.94,340.71 L 587.60 328.92 L 595.30 321.21 L 603.01 313.51 L 634.44 345.01 L 665.87 376.50 L 634.43 408.47 L 602.99 440.44 L 595.49 432.99 C591.37,428.90 588.00,425.31 588.00,425.03 C588.01,424.17 593.47,418.35 608.89,402.75 L 623.47 388.00 L 544.45 388.00 L 541.53 394.75 C539.39,399.72 536.81,403.32 531.78,408.38 L 524.94 415.27 L 526.89 420.88 C529.72,429.01 537.69,451.21 538.47,453.15 C538.88,454.16 540.86,455.05 543.61,455.46 C557.52,457.55 566.02,467.35 565.99,481.29 C565.97,490.67 559.31,500.92 551.00,504.34 ZM 496.99 399.07 C503.65,401.09 510.16,399.38 516.30,393.97 C522.22,388.75 524.46,383.06 523.74,375.06 C523.07,367.72 520.18,362.43 514.69,358.50 C510.86,355.76 509.80,355.50 502.43,355.50 C495.29,355.50 493.87,355.82 490.19,358.26 C484.36,362.11 480.75,367.93 480.22,374.32 C479.23,386.35 485.47,395.56 496.99,399.07 Z" fill="#FFFFFF"/>
</svg>